<svg width="90" height="90" viewBox="0 0 90 90" fill="none" xmlns="http://www.w3.org/2000/svg">
<circle cx="45" cy="45" r="45" fill="#CAF7CE"/>
<path d="M37.5319 20.3418C38.2273 20.4961 38.9317 20.617 39.6156 20.8113C44.377 22.1643 47.9013 26.2557 48.4123 31.1869C48.5826 32.832 48.4392 34.5105 48.4392 36.1992H44.1734C44.1734 35.133 44.1977 34.0783 44.1644 33.0249C44.1414 32.2918 44.1196 31.5432 43.9595 30.8332C43.1296 27.1445 39.7615 24.5515 36.0272 24.6775C32.2851 24.8049 29.1053 27.6152 28.5008 31.3361C28.4547 31.6204 28.4137 31.9085 28.4124 32.1953C28.4048 34.2301 28.4086 36.2648 28.4086 38.3703H29.0374C35.7147 38.3703 42.392 38.3703 49.0706 38.3703C49.6682 38.3703 49.967 38.6623 49.967 39.2462C49.967 40.7871 49.967 42.3266 49.967 43.8675C49.967 44.0386 49.967 44.2083 49.967 44.4141C53.9601 43.0932 57.738 43.4045 61.2815 45.6077C64.2526 47.4547 66.189 50.1235 67.0201 53.5281C68.7029 60.4208 64.6061 66.5289 59.6257 68.5109C59.4425 68.0967 59.2594 67.68 59.0852 67.2877C59.8421 66.817 60.5541 66.3681 61.2726 65.9295C61.5287 65.7726 61.6145 65.5732 61.6324 65.2646C61.7144 63.7867 61.3673 63.0665 59.5808 62.4941C58.8112 62.2472 58.0172 62.0812 57.2245 61.8754C56.6392 63.1706 55.7159 63.9141 54.3007 63.8497C53.0355 63.7919 52.2158 63.069 51.6921 61.8844C50.5241 62.2176 49.2832 62.3102 48.2228 62.9841C47.3788 63.5218 46.9972 64.6009 47.3046 65.5668C47.3507 65.7134 47.5184 65.8382 47.6555 65.9359C50.6599 68.0749 53.9473 68.6923 57.5164 67.7675C57.5766 67.752 57.6381 67.7379 57.7598 67.707C57.8955 68.1649 58.0287 68.6151 58.1683 69.0858C56.5969 69.59 55.0269 69.7559 53.4478 69.6042C49.1577 69.1913 45.8011 67.1668 43.4908 63.5063C42.9171 62.5983 42.5393 61.559 42.1282 60.5558C41.9847 60.2047 41.8516 60.0709 41.461 60.0709C36.0297 60.0851 30.5985 60.0889 25.166 60.0671C24.673 60.0645 24.1338 59.9616 23.6997 59.7404C22.8788 59.3236 22.6022 58.5442 22.6034 57.6465C22.6086 54.3255 22.6047 51.0046 22.6047 47.6836C22.6047 44.7472 22.6124 41.8109 22.5957 38.8758C22.5932 38.4784 22.7008 38.3227 23.1042 38.3652C23.3872 38.3948 23.6753 38.3716 24.0416 38.3716C24.0416 38.1594 24.0403 37.9755 24.0416 37.7915C24.0659 35.6745 24.0006 33.5523 24.1364 31.4416C24.3054 28.8229 25.3786 26.5412 27.1075 24.5193C27.4827 24.8499 27.8259 25.1509 28.0782 25.3734C27.4571 26.4988 26.8091 27.5432 26.2904 28.648C25.7551 29.7863 25.5336 31.0236 25.5284 32.2892C25.522 34.2918 25.5271 36.2957 25.5271 38.3356H26.9167C26.9167 38.1324 26.9154 37.9446 26.9167 37.7568C26.9359 35.7684 26.868 33.7735 26.9961 31.7927C27.2586 27.7335 30.3334 24.2775 34.2983 23.4364C39.6437 22.3032 44.7906 25.8981 45.5424 31.3349C45.6845 32.3612 45.6205 33.4159 45.6525 34.4577C45.6551 34.5503 45.6666 34.6429 45.6769 34.76H47.0484C47.0484 34.4474 47.0407 34.1349 47.0497 33.8224C47.1022 32.0153 47.0023 30.2275 46.2596 28.5451C44.5409 24.6505 41.5942 22.3675 37.3642 21.8736C34.3559 21.5225 31.6947 22.4319 29.3614 24.347C29.3127 24.3869 29.2615 24.4229 29.1732 24.4885C28.8658 24.1425 28.5623 23.8004 28.2011 23.3952C28.6724 23.0415 29.1091 22.6775 29.5804 22.3663C31.1774 21.3116 32.9203 20.6479 34.8272 20.4318C34.9002 20.4241 34.9681 20.374 35.0385 20.3431C35.8697 20.3431 36.6995 20.3431 37.5307 20.3431L37.5319 20.3418ZM48.4879 39.8842H24.1082C24.0992 40.0681 24.0851 40.225 24.0851 40.3806C24.0851 46.1068 24.0839 51.8316 24.0851 57.5577C24.0851 58.4259 24.2529 58.5944 25.1225 58.5944C30.4564 58.5944 35.7903 58.5944 41.1229 58.5944C41.2919 58.5944 41.4597 58.5802 41.6454 58.5725C41.4097 56.9468 41.4494 55.3815 41.8093 53.8368C42.6891 50.0605 44.8214 47.2116 48.1652 45.2797C48.4059 45.1408 48.502 44.9916 48.493 44.7151C48.4738 44.1067 48.4866 43.4958 48.4866 42.8874C48.4866 41.8971 48.4866 40.9067 48.4866 39.8842H48.4879ZM63.0783 64.206C65.8458 61.2169 66.8946 56.1995 64.9083 51.8496C62.8094 47.2528 58.1478 44.5929 52.9906 45.1974C48.2599 45.7531 44.2835 49.3068 43.2065 54.2213C42.4471 57.6876 43.8571 62.9726 45.8369 64.1366C46.1072 62.5378 47.1803 61.6748 48.6031 61.1886C49.4445 60.9005 50.3256 60.7256 51.1862 60.4941C51.304 60.4619 51.4487 60.4233 51.5166 60.3372C51.6754 60.1378 51.5204 59.3236 51.3091 59.1487C50.291 58.3101 49.6213 57.2452 49.4791 55.9332C49.3741 54.9647 49.4202 53.9795 49.424 53.002C49.433 50.4502 51.2861 48.3576 53.8397 47.9987C56.2563 47.6592 58.6639 49.2708 59.2953 51.6978C59.659 53.0985 59.5399 54.5403 59.4156 55.9551C59.3017 57.2516 58.6255 58.3178 57.6074 59.1243C57.195 59.451 57.3602 59.8574 57.382 60.224C57.3884 60.3436 57.7213 60.4851 57.9262 60.5442C58.7062 60.7693 59.5104 60.9198 60.2775 61.1809C61.7195 61.6709 62.8004 62.5404 63.0796 64.2073L63.0783 64.206ZM54.4775 53.748C53.7744 53.748 53.0713 53.7377 52.3695 53.7506C51.5384 53.7647 50.8993 54.3358 50.8712 55.1268C50.8584 55.4728 50.9211 55.8316 51.0133 56.1673C51.4974 57.9063 53.0777 58.9429 54.9295 58.759C56.57 58.5969 57.9352 57.1088 58.0402 55.3686C58.094 54.476 57.4793 53.7789 56.5854 53.7519C55.8836 53.7313 55.1805 53.748 54.4775 53.7467V53.748ZM57.9455 52.4734C57.9544 50.9313 56.1948 49.3827 54.3929 49.4187C52.6103 49.4534 50.8776 51.0444 50.9672 52.4927C53.2865 52.1917 55.6006 52.2213 57.9455 52.4734ZM55.8465 60.1828H53.0559C53.0162 60.8902 52.9087 61.6555 53.6719 62.1636C54.174 62.498 54.7438 62.4954 55.2433 62.1545C55.9976 61.6401 55.8875 60.8761 55.8465 60.1828Z" fill="black"/>
<path d="M35.7165 53.6864C34.1003 52.0696 32.429 50.3963 30.7949 48.7616C31.7823 47.7699 32.7812 46.7667 33.7801 45.7635C34.3666 46.3693 35.0172 47.0419 35.6639 47.7095C36.7422 46.6213 37.7386 45.6143 38.717 44.6265C39.7723 45.703 40.7635 46.714 41.7022 47.6709C39.753 49.6297 37.7309 51.6632 35.7177 53.6864H35.7165ZM35.7497 51.6671C37.0855 50.3269 38.4135 48.9944 39.73 47.6722C39.447 47.3763 39.1332 47.0496 38.7298 46.6291C37.7181 47.6567 36.7256 48.6651 35.6934 49.7121C35.0569 49.0638 34.4076 48.4027 33.7545 47.7378C33.4279 48.076 33.1129 48.4027 32.8158 48.7114C33.798 49.7005 34.788 50.6986 35.7497 51.6671Z" fill="black"/>
<path d="M44.2159 42.0052C44.2056 42.8579 44.3145 42.7435 43.427 42.7447C42.6189 42.7447 42.7419 42.8374 42.738 41.9074C42.7355 41.146 42.665 41.2682 43.5717 41.2631C44.3132 41.2592 44.2056 41.2065 44.2146 42.0052H44.2159Z" fill="black"/>
<path d="M47.0911 42.0425C47.0808 42.8618 47.1846 42.7409 46.2651 42.7447C45.4992 42.7473 45.6171 42.8219 45.6145 41.9164C45.6119 41.1473 45.5364 41.2669 46.4392 41.263C47.1987 41.2605 47.0821 41.1949 47.0924 42.0438L47.0911 42.0425Z" fill="black"/>
</svg>
