<svg width="72" height="72" viewBox="0 0 72 72" fill="none" xmlns="http://www.w3.org/2000/svg">
<circle cx="35.8629" cy="35.8629" r="35.8629" fill="#C9F5CD"/>
<path d="M41.3012 14.9297C42.0545 15.0954 42.8118 15.2464 43.5601 15.4302C44.4381 15.646 44.6391 16.1432 44.1952 16.9441C43.6209 17.9812 43.0416 19.0159 42.4656 20.0522C42.3942 20.1811 42.3293 20.3148 42.2612 20.4477C43.9368 21.0672 44.5899 22.897 43.4978 24.4527C47.4757 27.1474 49.5229 30.9251 49.8675 35.7334C50.5248 35.3018 51.1804 34.8734 51.8335 34.441C52.4284 34.0472 53.0701 33.8306 53.7938 33.8461C55.1296 33.8749 56.4474 34.8119 56.714 36.1149C56.9627 37.3293 56.7903 38.4772 55.7844 39.4069C52.8682 42.1031 49.9841 44.8322 47.0859 47.5481C46.6379 47.9683 46.1981 48.3982 45.7296 48.7937C44.9846 49.4231 44.114 49.7332 43.1335 49.7324C39.3804 49.7308 35.6273 49.7324 31.8742 49.7324C31.7298 49.7324 31.5845 49.7324 31.4188 49.7324C31.5558 49.9671 31.7593 50.1615 31.7601 50.356C31.7609 50.6301 31.692 50.9829 31.5131 51.1659C29.758 52.962 27.9791 54.7335 26.1961 56.5026C25.7801 56.9153 25.3411 56.8874 24.9013 56.4509C23.7395 55.2972 22.5833 54.1362 21.4256 52.9784C19.4087 50.9615 17.391 48.9447 15.375 46.9278C14.7563 46.3092 14.7555 45.9555 15.3709 45.3401C17.0111 43.6991 18.6522 42.0588 20.2924 40.4186C20.9833 39.7277 21.2409 39.7203 21.9704 40.3669C21.9999 40.3931 22.0385 40.4071 22.0976 40.4407C22.8229 39.8073 23.5606 39.1829 24.2761 38.5346C25.4363 37.4852 26.7459 36.7024 28.2458 36.2503C28.4509 36.1888 28.5231 36.1075 28.5313 35.8893C28.7053 31.0449 30.7624 27.236 34.8059 24.5258C34.8281 24.511 34.8428 24.4864 34.8617 24.4659C33.8032 23.0217 34.2939 21.1345 36.0917 20.4445C35.4804 19.3474 34.8716 18.2545 34.2627 17.1607C34.1831 17.0179 34.0978 16.8776 34.0264 16.7307C33.7597 16.1859 33.9641 15.66 34.5483 15.5073C35.2843 15.3162 36.0342 15.1783 36.7785 15.015C36.8679 14.9953 36.9541 14.9592 37.041 14.9305C38.4606 14.9305 39.8801 14.9305 41.2996 14.9305L41.3012 14.9297ZM23.2463 41.6083C23.3103 41.6929 23.3317 41.7281 23.3595 41.756C25.4133 43.8123 27.4655 45.8702 29.5291 47.9157C29.644 48.0298 29.8622 48.0897 30.0321 48.0905C34.33 48.0995 38.6279 48.0954 42.9259 48.1004C43.716 48.1012 44.3774 47.8386 44.9534 47.2905C46.4763 45.8431 48.0172 44.4146 49.55 42.9778C51.2427 41.3917 52.933 39.804 54.6274 38.2204C55.0401 37.8347 55.2937 37.3802 55.1985 36.8058C55.0057 35.6415 53.8069 35.1368 52.7919 35.7974C50.3369 37.3974 47.8958 39.0188 45.4334 40.6065C45.0363 40.8625 44.8779 41.1152 44.8853 41.6051C44.9132 43.3339 43.4502 44.8027 41.7304 44.815C39.807 44.8289 37.8829 44.8191 35.9588 44.8166C35.839 44.8166 35.711 44.8035 35.5994 44.7625C35.2219 44.623 35.0135 44.2381 35.0857 43.8426C35.1579 43.4463 35.4878 43.1862 35.9489 43.1854C37.7771 43.1821 39.6052 43.192 41.4333 43.1756C41.7386 43.1731 42.0651 43.1165 42.3425 42.995C42.9997 42.7079 43.3714 41.9415 43.2336 41.2744C43.0654 40.4596 42.4565 39.9254 41.627 39.9107C40.6038 39.8926 39.5789 39.8688 38.5574 39.9164C37.6605 39.9583 36.927 39.6768 36.2156 39.1451C33.2477 36.9264 29.2756 36.8682 26.3003 39.0335C25.2353 39.8089 24.2769 40.732 23.2455 41.6083H23.2463ZM38.3555 29.3734C38.3555 29.0329 38.344 28.7187 38.358 28.406C38.3785 27.9433 38.7305 27.6192 39.1851 27.6257C39.62 27.6315 39.9597 27.9498 39.9851 28.3929C39.9982 28.6243 40.0056 28.8582 39.9843 29.0879C39.9629 29.3177 40.0663 29.4079 40.2592 29.5113C40.58 29.6836 40.8918 29.8896 41.1658 30.1283C41.5318 30.4475 41.5482 30.9128 41.2569 31.2623C40.964 31.6143 40.4815 31.6521 40.0852 31.3591C39.9104 31.2303 39.7389 31.0892 39.5469 30.9932C39.2245 30.8315 38.9045 30.875 38.637 31.122C38.4015 31.3394 38.294 31.6086 38.3974 31.9343C38.5139 32.3027 38.7781 32.4857 39.1473 32.5325C39.3229 32.5546 39.5034 32.5473 39.6741 32.5858C40.7145 32.8205 41.4891 33.6525 41.6163 34.6585C41.7492 35.7161 41.229 36.6893 40.2674 37.2005C40.1615 37.2571 40.0171 37.3555 40.004 37.4499C39.9679 37.7117 39.9917 37.9824 39.9917 38.2811C41.5457 38.2458 43.0908 38.0776 44.1682 39.4717C45.2307 38.7751 46.2096 38.0456 47.2706 37.468C48.0312 37.0536 48.2248 36.4989 48.1846 35.7178C47.9943 32.0164 46.5288 28.9312 43.6373 26.6091C40.9049 24.4142 37.8017 24.342 35.0365 26.3605C32.4133 28.2764 30.9183 30.921 30.3267 34.0898C30.2208 34.656 30.1995 35.2369 30.1347 35.8466C32.9729 35.6283 35.4221 36.3939 37.5941 38.0834C37.7762 38.2253 38.0577 38.2401 38.3334 38.3262C38.3424 38.117 38.3358 37.9947 38.3555 37.8758C38.4187 37.4934 38.2735 37.2932 37.9149 37.1012C37.5063 36.8821 37.1518 36.5367 36.8277 36.1945C36.5684 35.9213 36.5914 35.5668 36.8096 35.2501C37.0197 34.9465 37.3315 34.8341 37.6704 34.9317C37.8649 34.9875 38.0199 35.1729 38.2029 35.2845C38.4999 35.4651 38.7863 35.7014 39.1104 35.7883C39.5141 35.8966 39.9383 35.4929 39.9835 35.0589C40.031 34.5961 39.6536 34.2096 39.117 34.1727C37.9723 34.0939 37.1034 33.4342 36.8088 32.4119C36.5036 31.3542 36.8745 30.0176 38.3555 29.3726V29.3734ZM21.1966 42.0252C19.8042 43.4135 18.4085 44.8059 17.0595 46.1516C19.8846 48.98 22.745 51.8444 25.566 54.6695C26.9379 53.2976 28.3311 51.9043 29.7039 50.5316C26.8722 47.7008 24.0094 44.8379 21.1966 42.0252ZM42.3622 16.8366C40.2198 16.3845 38.1217 16.3705 35.9834 16.844C36.5651 17.891 37.1272 18.9158 37.7106 19.9275C37.7615 20.0161 37.951 20.0613 38.0774 20.0637C38.8101 20.0769 39.5436 20.076 40.2772 20.067C40.3954 20.0654 40.5767 20.035 40.6218 19.9562C41.2085 18.9314 41.7763 17.8951 42.363 16.8374L42.3622 16.8366ZM39.19 21.5522C38.3161 21.7245 37.4185 21.8722 36.5364 22.0872C36.0622 22.2029 35.8529 22.696 36.0072 23.1259C36.1549 23.5387 36.5331 23.7192 37.0008 23.5871C38.4532 23.1785 39.9022 23.1768 41.3546 23.592C41.9782 23.7701 42.5033 23.2851 42.3597 22.6706C42.2809 22.3341 42.0504 22.1224 41.7189 22.0527C40.8959 21.8804 40.0696 21.7245 39.1908 21.5514L39.19 21.5522Z" fill="#2C2825"/>
<path d="M32.6137 43.1853C33.079 43.182 33.4383 43.5406 33.4367 44.005C33.4351 44.4686 33.0707 44.8247 32.6063 44.8182C32.16 44.8116 31.8121 44.4645 31.8039 44.0182C31.7956 43.5521 32.1493 43.1886 32.6137 43.1853Z" fill="#2C2825"/>
</svg>
