<svg width="72" height="72" viewBox="0 0 72 72" fill="none" xmlns="http://www.w3.org/2000/svg">
<circle cx="35.8629" cy="35.8629" r="35.8629" fill="#F6FCEA"/>
<path d="M45.2937 30.6973C45.6364 30.3379 45.9624 29.9596 46.3262 29.6224C47.5112 28.5231 48.9009 28.1626 50.4431 28.6533C51.963 29.1373 52.8787 30.2155 53.1368 31.7899C53.3605 33.1551 52.9332 34.3346 51.9552 35.3126C49.8155 37.4522 47.6792 39.5963 45.5296 41.726C45.2826 41.9707 45.1802 42.2077 45.1824 42.556C45.1969 45.1797 45.1924 47.8033 45.1891 50.427C45.1869 52.7914 43.4567 54.5182 41.0878 54.5193C34.937 54.5216 28.7874 54.5216 22.6366 54.5193C20.2677 54.5193 18.5331 52.7914 18.5331 50.4292C18.5309 40.7134 18.5309 30.9966 18.532 21.2797C18.532 18.9442 20.2722 17.2074 22.6099 17.2063C28.774 17.204 34.9382 17.204 41.1034 17.2063C43.4645 17.2063 45.1869 18.9398 45.1891 21.3131C45.1913 24.2694 45.1891 27.2269 45.1891 30.1832C45.1891 30.3334 45.1891 30.4847 45.1891 30.635C45.2236 30.6561 45.2592 30.6772 45.2937 30.6984V30.6973ZM42.5243 44.7646C42.3574 44.9215 42.2561 45.0105 42.1604 45.1062C41.3059 45.9596 40.467 46.8297 39.588 47.6564C39.3298 47.899 38.976 48.1015 38.6322 48.1816C37.1902 48.5199 35.7215 48.7468 34.2917 49.1274C33.1846 49.4222 32.1343 48.6245 32.487 47.267C32.8386 45.9151 33.0867 44.5365 33.3548 43.1646C33.4516 42.6684 33.6564 42.2667 34.018 41.9073C36.7663 39.178 39.5001 36.4341 42.245 33.7026C42.4475 33.5012 42.5321 33.3031 42.531 33.0149C42.5209 29.1696 42.5243 25.3253 42.5243 21.48C42.5243 20.3818 42.0147 19.8666 40.9276 19.8666C34.8881 19.8666 28.8486 19.8666 22.8102 19.8666C21.6897 19.8666 21.1935 20.3684 21.1935 21.4989C21.1935 26.4124 21.1935 31.327 21.1935 36.2405C21.1935 40.946 21.1924 45.6514 21.1935 50.358C21.1935 51.2715 21.7353 51.8534 22.6121 51.8545C28.7762 51.8601 34.9404 51.8567 41.1045 51.8567C41.1323 51.8567 41.1602 51.8567 41.188 51.8556C41.9435 51.8145 42.5098 51.2804 42.5165 50.5238C42.5343 48.6367 42.5221 46.7496 42.5221 44.7635L42.5243 44.7646ZM35.4856 46.1254C36.1899 45.9752 36.8275 45.8606 37.4505 45.6959C37.7031 45.6292 37.9724 45.499 38.1549 45.3176C42.0703 41.4189 45.9758 37.509 49.8812 33.6013C49.9991 33.4834 50.1627 33.3788 50.2139 33.2352C50.3363 32.8959 50.4954 32.5298 50.4731 32.1871C50.4386 31.6664 50.087 31.3159 49.5663 31.1679C48.9977 31.0055 48.5427 31.1913 48.1377 31.5963C44.1643 35.5752 40.1877 39.5496 36.2122 43.5262C36.1243 43.6141 36.0007 43.7032 35.9763 43.81C35.8049 44.5599 35.6547 45.3143 35.4856 46.1276V46.1254Z" fill="#2C2825"/>
<path d="M31.86 26.5314C29.6803 26.5314 27.4995 26.5314 25.3198 26.5314C24.4453 26.5314 23.8556 25.9817 23.8634 25.1795C23.8711 24.4028 24.4597 23.8699 25.3187 23.8699C29.6792 23.8699 34.0386 23.8699 38.3992 23.8699C39.2726 23.8699 39.8645 24.4218 39.8567 25.2206C39.8489 25.9939 39.2559 26.5314 38.4003 26.5314C36.2206 26.5325 34.0398 26.5314 31.86 26.5314Z" fill="#2C2825"/>
<path d="M31.8407 31.8622C29.6187 31.8622 27.3978 31.8655 25.1758 31.8599C24.5238 31.8577 23.9552 31.3559 23.8718 30.7395C23.7806 30.0663 24.1622 29.4499 24.8064 29.2563C24.9622 29.2096 25.1336 29.2018 25.2982 29.2018C29.6721 29.1996 34.046 29.1985 38.4198 29.2007C39.2655 29.2007 39.8563 29.7514 39.8574 30.5303C39.8574 31.3125 39.2699 31.861 38.4221 31.8622C36.2279 31.8644 34.0348 31.8622 31.8407 31.8622Z" fill="#2C2825"/>
<path d="M27.8611 37.1941C26.9866 37.1941 26.112 37.1975 25.2364 37.193C24.4319 37.1886 23.8556 36.6166 23.8634 35.8411C23.8711 35.0901 24.4464 34.5349 25.2353 34.5326C26.9844 34.5282 28.7346 34.5282 30.4837 34.5326C31.2848 34.5349 31.8656 35.1123 31.8578 35.8823C31.85 36.63 31.2703 37.1874 30.4848 37.1919C29.6103 37.1963 28.7357 37.193 27.86 37.193L27.8611 37.1941Z" fill="#2C2825"/>
</svg>
