<svg width="72" height="72" viewBox="0 0 72 72" fill="none" xmlns="http://www.w3.org/2000/svg">
<circle cx="35.8629" cy="35.8629" r="35.8629" fill="#C9F5CD"/>
<path d="M48.0392 21.2517C50.9769 21.6812 52.3656 24.0101 52.3518 26.0373C52.338 28.0572 50.9429 30.3331 48.0392 30.7574C48.0392 30.915 48.0392 31.0812 48.0392 31.2483C48.0392 38.2052 48.0392 45.1609 48.0392 52.1178C48.0392 53.5768 47.3056 54.6825 46.0443 55.0708C45.6844 55.1819 45.2894 55.219 44.9104 55.22C37.4403 55.2285 29.9702 55.2285 22.4991 55.2243C20.5753 55.2232 19.3767 54.0255 19.3756 52.1082C19.3735 41.2842 19.3735 30.4601 19.3756 19.637C19.3756 17.6987 20.5732 16.5104 22.5267 16.5094C29.984 16.5062 37.4403 16.521 44.8976 16.4988C46.711 16.4935 47.8035 17.6606 47.9872 18.8943C48.0795 19.5154 48.0275 20.1587 48.0392 20.7914C48.0424 20.9469 48.0392 21.1025 48.0392 21.2517ZM47.1346 21.2612C47.1346 20.7152 47.1346 20.1894 47.1346 19.6635C47.1325 18.2139 46.3309 17.4172 44.8679 17.4172C37.4371 17.4172 30.0063 17.4172 22.5766 17.4172C21.0796 17.4172 20.2908 18.1991 20.2908 19.6794C20.2908 30.477 20.2908 41.2746 20.2908 52.0723C20.2908 53.5271 21.0871 54.3186 22.5533 54.3186C29.9968 54.3186 37.4414 54.3186 44.8849 54.3186C46.3373 54.3186 47.1357 53.5155 47.1357 52.0553C47.1357 45.0985 47.1357 38.1427 47.1357 31.1859V30.7669C44.2044 30.3204 42.8019 28.0254 42.8167 25.977C42.8316 23.8662 44.3095 21.6749 47.1357 21.2612H47.1346ZM46.8777 26.5452C46.6558 26.2913 46.487 26.0691 46.2895 25.8786C46.0899 25.685 45.8542 25.685 45.6567 25.8892C45.4614 26.0923 45.4731 26.3241 45.6621 26.524C45.9615 26.8393 46.2715 27.1451 46.5847 27.4467C46.7843 27.6392 47.0231 27.6646 47.2227 27.47C47.9967 26.7155 48.7633 25.9527 49.5192 25.1803C49.7092 24.9867 49.7188 24.702 49.4895 24.5581C49.3419 24.4661 49.086 24.5126 48.8875 24.5497C48.7898 24.5677 48.7134 24.702 48.6295 24.7856C48.071 25.3443 47.5137 25.904 46.8756 26.5441L46.8777 26.5452Z" fill="black"/>
<path d="M33.6877 34.7727C32.3776 34.7727 31.0685 34.7748 29.7584 34.7727C29.2424 34.7727 29.1001 34.6256 29.1235 34.1061C29.183 32.7433 29.5673 31.4885 30.4135 30.3976C32.1621 28.1428 35.0446 28.0772 36.8855 30.2579C37.8644 31.4165 38.2541 32.7941 38.305 34.2807C38.3178 34.6468 38.0831 34.778 37.7349 34.777C36.3855 34.7717 35.0361 34.7748 33.6867 34.7748L33.6877 34.7727Z" fill="black"/>
<path d="M33.7087 28.1324C32.252 28.1356 31.0842 26.976 31.082 25.5232C31.0799 24.0737 32.2478 22.8907 33.6885 22.8833C35.1483 22.8759 36.3448 24.0652 36.3427 25.5232C36.3395 26.9675 35.1674 28.1293 33.7087 28.1335V28.1324Z" fill="black"/>
<path d="M33.6904 38.5543C30.9757 38.5543 28.2599 38.5543 25.5451 38.5543C25.4135 38.5543 25.2436 38.5955 25.1565 38.531C25.0047 38.4178 24.82 38.2453 24.8062 38.0834C24.7945 37.9512 24.9898 37.7702 25.1332 37.6666C25.2234 37.601 25.389 37.6306 25.5207 37.6306C30.9778 37.6295 36.4349 37.6295 41.8909 37.6306C42.0226 37.6306 42.1871 37.5999 42.2784 37.6644C42.4218 37.7671 42.6161 37.9459 42.6054 38.0792C42.5938 38.24 42.4133 38.4157 42.2636 38.5299C42.1776 38.5955 42.0077 38.5543 41.875 38.5543C39.1464 38.5543 36.4179 38.5543 33.6893 38.5543H33.6904Z" fill="black"/>
<path d="M33.6773 42.7475C30.9753 42.7475 28.2733 42.7475 25.5713 42.7475C25.4651 42.7475 25.359 42.7528 25.2539 42.7443C24.9799 42.7242 24.7952 42.5845 24.7846 42.3041C24.774 42.0005 24.9672 41.8545 25.2549 41.8248C25.3462 41.8153 25.4397 41.8206 25.5331 41.8206C30.9764 41.8206 36.4207 41.8206 41.864 41.8206C41.9702 41.8206 42.0774 41.8132 42.1815 41.8269C42.448 41.8619 42.6306 41.9941 42.6285 42.2861C42.6263 42.575 42.449 42.7115 42.1794 42.7422C42.0615 42.7559 41.9415 42.7464 41.8216 42.7464C39.1068 42.7464 36.391 42.7464 33.6763 42.7464L33.6773 42.7475Z" fill="black"/>
<path d="M33.758 46.0191C35.0426 46.0191 36.3273 46.0191 37.6119 46.0191C37.7181 46.0191 37.854 45.981 37.923 46.0318C38.0865 46.1524 38.302 46.2952 38.3434 46.4666C38.4082 46.7322 38.1959 46.8962 37.9262 46.9375C37.8359 46.9512 37.7415 46.9449 37.6491 46.9449C35.0267 46.9449 32.4054 46.9449 29.783 46.9449C29.7034 46.9449 29.6238 46.9481 29.5452 46.9417C29.2554 46.9206 29.0536 46.7756 29.0547 46.4793C29.0547 46.1831 29.2554 46.0318 29.5473 46.0223C29.7989 46.0138 30.0506 46.0191 30.3022 46.0191C31.4541 46.0191 32.6061 46.0191 33.758 46.0191Z" fill="black"/>
<path d="M33.6963 50.0841C34.57 50.0745 35.2941 50.7813 35.3058 51.6542C35.3175 52.5229 34.6125 53.2509 33.7398 53.2731C32.8724 53.2953 32.1324 52.5854 32.1165 51.7167C32.1006 50.8131 32.797 50.0925 33.6963 50.083V50.0841Z" fill="black"/>
<path d="M32.2099 19.6339C31.0866 19.6339 29.9623 19.6339 28.839 19.6339C28.7201 19.6339 28.5641 19.672 28.4908 19.6127C28.3443 19.4932 28.1606 19.3239 28.1479 19.163C28.1373 19.0318 28.3316 18.8477 28.477 18.7536C28.5832 18.6848 28.7584 18.7165 28.9038 18.7165C31.0983 18.7144 33.2928 18.7155 35.4874 18.7165C35.6063 18.7165 35.7262 18.7134 35.8441 18.7261C36.118 18.7567 36.2889 18.9038 36.2794 19.1895C36.2698 19.472 36.0968 19.617 35.8197 19.6307C35.6084 19.6413 35.3971 19.6349 35.1848 19.6349C34.1932 19.6349 33.2015 19.6349 32.2099 19.6349V19.6339Z" fill="black"/>
<path d="M38.4912 19.6329C38.4116 19.6329 38.332 19.6329 38.2534 19.6329C37.9402 19.6308 37.7342 19.4869 37.7363 19.1652C37.7385 18.8605 37.9497 18.7293 38.2375 18.7187C38.4222 18.7124 38.608 18.7103 38.7938 18.7187C39.0773 18.7335 39.2896 18.852 39.2885 19.1673C39.2875 19.4975 39.0783 19.6276 38.7694 19.6308C38.677 19.6318 38.5836 19.6308 38.4912 19.6308V19.6329Z" fill="black"/>
</svg>
