<svg width="73" height="72" viewBox="0 0 73 72" fill="none" xmlns="http://www.w3.org/2000/svg">
<circle cx="36.7096" cy="35.8629" r="35.8629" fill="#F6FCEA"/>
<g clip-path="url(#clip0_219_1189)">
<path d="M48.905 35.2109C48.905 35.3558 48.9231 35.4555 48.9231 35.5641C48.9231 38.1361 48.9412 40.699 48.9231 43.271C48.8869 47.129 46.4224 50.2896 42.7257 51.2224C42.0824 51.3854 41.3938 51.4397 40.7233 51.4578C38.9474 51.485 37.1716 51.4669 35.3957 51.4669C32.8134 51.4669 30.5845 50.5613 28.709 48.7953C26.4801 46.7033 24.2512 44.6023 22.0314 42.5012C21.2612 41.7767 21.1163 40.7715 21.6599 40.0017C22.2035 39.2319 23.1821 39.0327 24.1425 39.5036C25.6737 40.2643 27.1959 41.025 28.7271 41.7858C30.0953 42.465 31.3003 41.7314 31.3003 40.2009C31.3003 38.6885 31.3003 37.1852 31.3003 35.6728C31.3003 35.5279 31.3003 35.383 31.3003 35.2109H48.9141H48.905Z" fill="#2C2825"/>
<path d="M36.7099 33.8255C30.9655 33.8255 25.212 33.8255 19.4676 33.8255C19.3045 33.8255 19.1505 33.8255 18.9874 33.8074C18.6431 33.7621 18.4438 33.5628 18.4075 33.2097C18.3713 32.8655 18.5706 32.5848 18.9059 32.5033C19.0418 32.467 19.1958 32.467 19.3408 32.467C30.9202 32.467 42.4905 32.467 54.0699 32.467C54.2421 32.467 54.4233 32.467 54.5773 32.5304C54.8854 32.6391 55.0394 32.8746 55.0122 33.2097C54.985 33.5447 54.8038 33.753 54.4776 33.8074C54.3055 33.8345 54.1333 33.8255 53.9612 33.8255C48.2168 33.8255 42.4633 33.8255 36.7189 33.8255H36.7099Z" fill="#2C2825"/>
<path d="M39.4189 31.0905H36.0303C36.0303 30.9365 36.0303 30.7916 36.0303 30.6558C36.0303 27.4227 36.0303 24.1987 36.0393 20.9656C36.0393 20.5943 36.1118 20.1958 36.2568 19.8517C36.583 19.1091 37.3803 18.7559 38.1323 18.946C38.8662 19.1272 39.4008 19.7883 39.4099 20.5671C39.4189 21.4003 39.4099 22.2335 39.4099 23.0666C39.4099 25.5843 39.4099 28.0929 39.4099 30.6105V31.0905H39.4189Z" fill="#2C2825"/>
<path d="M44.176 31.0814H40.7964C40.7964 30.9456 40.7783 30.8279 40.7783 30.7101C40.7783 27.8212 40.7783 24.9413 40.7783 22.0524C40.7783 20.9385 41.5847 20.1777 42.6448 20.2683C43.5056 20.3407 44.167 21.1467 44.176 22.1429C44.176 23.918 44.176 25.693 44.176 27.4589C44.176 28.6453 44.176 29.8407 44.176 31.0724V31.0814Z" fill="#2C2825"/>
<path d="M34.6535 31.0904H31.3192C31.3101 30.9908 31.292 30.9003 31.292 30.8187C31.292 27.9298 31.292 25.0499 31.292 22.161C31.292 21.5089 31.5185 20.9656 32.0531 20.5761C33.0497 19.8516 34.5085 20.4856 34.6535 21.7082C34.6716 21.8349 34.6716 21.9708 34.6716 22.1066C34.6716 24.9956 34.6716 27.8755 34.6716 30.7644C34.6716 30.855 34.6716 30.9455 34.6535 31.0904Z" fill="#2C2825"/>
<path d="M22.0681 16.863C23.0466 16.863 24.0252 16.863 25.0128 16.863C25.3752 16.863 25.6742 16.9808 25.8101 17.334C25.9823 17.7868 25.638 18.2215 25.1034 18.2215C23.6084 18.2215 22.1134 18.2215 20.6093 18.2305C20.3556 18.2305 20.0748 18.2758 19.8392 18.3754C19.2865 18.629 19.06 19.0999 19.06 19.6976C19.06 21.1104 19.06 22.5322 19.06 23.945C19.06 24.0628 19.06 24.1805 19.06 24.2982C19.0237 24.7148 18.7519 24.9955 18.3804 24.9865C17.9908 24.9865 17.71 24.7057 17.71 24.262C17.71 23.0575 17.71 21.853 17.71 20.6485C17.71 19.8697 17.71 19.0818 17.71 18.303C17.719 17.4336 18.2808 16.8721 19.1687 16.863C20.1382 16.863 21.0986 16.863 22.0681 16.863Z" fill="#2C2825"/>
<path d="M55.7102 50.516C55.7102 51.4669 55.7102 52.4268 55.7102 53.3777C55.7102 54.3015 55.1484 54.8539 54.2242 54.863C52.3124 54.863 50.4097 54.863 48.498 54.863C48.353 54.863 48.199 54.863 48.0721 54.8086C47.7369 54.6999 47.5375 54.4645 47.5919 54.0841C47.6463 53.7219 47.8728 53.5226 48.2443 53.5136C48.7698 53.5045 49.3043 53.5136 49.8299 53.5136C50.8356 53.5136 51.8413 53.5136 52.847 53.5136C53.7893 53.5136 54.3511 52.9521 54.3511 52.0012C54.3511 50.5975 54.3511 49.1937 54.3511 47.79C54.3511 47.6723 54.3511 47.5546 54.3511 47.4368C54.3873 47.0202 54.6591 46.7395 55.0216 46.7395C55.4112 46.7395 55.692 47.0202 55.692 47.464C55.692 48.4874 55.692 49.5017 55.692 50.525L55.7102 50.516Z" fill="#2C2825"/>
<path d="M55.7101 21.2553C55.7101 22.1971 55.7101 23.139 55.7101 24.0808C55.7101 24.6876 55.4745 25.0046 55.0305 24.9955C54.5956 24.9955 54.36 24.6695 54.36 24.0537C54.36 22.6228 54.36 21.1919 54.36 19.761C54.36 18.7648 53.8164 18.2215 52.8107 18.2215C51.3519 18.2215 49.8932 18.2215 48.4435 18.2215C47.8999 18.2215 47.5918 17.986 47.5918 17.5603C47.5918 17.1438 47.9089 16.8721 48.4344 16.8721C50.3915 16.8721 52.3577 16.8721 54.3147 16.8721C55.1392 16.8721 55.7101 17.4517 55.7191 18.2758C55.7282 19.272 55.7191 20.2591 55.7191 21.2553H55.7101Z" fill="#2C2825"/>
<path d="M17.7096 50.489C17.7096 49.52 17.7096 48.551 17.7096 47.591C17.7096 47.0476 17.9543 46.7397 18.3711 46.7306C18.7969 46.7216 19.0597 47.0567 19.0597 47.6091C19.0597 49.049 19.0597 50.498 19.0597 51.938C19.0597 52.9704 19.5942 53.5047 20.6271 53.5047C22.0859 53.5047 23.5447 53.5047 24.9943 53.5047C25.5289 53.5047 25.837 53.7583 25.8279 54.1839C25.8279 54.5824 25.5017 54.8541 25.0034 54.8541C23.0282 54.8541 21.053 54.8541 19.0778 54.8541C18.2714 54.8541 17.7006 54.2745 17.6915 53.4685C17.6825 52.4723 17.6915 51.4852 17.6915 50.489H17.7096Z" fill="#2C2825"/>
<path d="M45.544 31.0814C45.544 29.5509 45.5168 28.0385 45.553 26.5352C45.5711 25.7111 46.3232 25.0409 47.1567 25.0047C47.9631 24.9685 48.7061 25.5843 48.8783 26.4175C48.8873 26.4718 48.8964 26.5261 48.8964 26.5714C48.8964 28.0657 48.8964 29.5509 48.8964 31.0724H45.5349L45.544 31.0814Z" fill="#2C2825"/>
</g>
<defs>
<clipPath id="clip0_219_1189">
<rect width="38" height="38" fill="white" transform="translate(17.71 16.863)"/>
</clipPath>
</defs>
</svg>
