<svg width="90" height="90" viewBox="0 0 90 90" fill="none" xmlns="http://www.w3.org/2000/svg">
<circle cx="45" cy="45" r="45" fill="#C9F5CD"/>
<path d="M44.6346 76.2809C44.4405 76.1537 44.2578 76.002 44.0507 75.9042C39.7167 73.8734 35.5198 71.6143 31.747 68.6325C28.1781 65.8107 25.1474 62.5353 23.1933 58.3727C21.5997 54.975 20.7009 51.3832 20.3486 47.6561C19.9359 43.2961 19.9376 38.9246 20.0632 34.5483C20.1447 31.6824 20.0893 28.8116 20.0942 25.9424C20.0958 24.9931 20.3307 24.7109 21.2735 24.7663C26.9988 25.1056 32.1793 23.45 37.0237 20.5254C39.5797 18.9823 41.6725 16.914 43.6837 14.7462C44.9511 13.3794 45.0669 13.3679 46.3343 14.7658C48.9653 17.6709 51.9144 20.1584 55.4621 21.8841C59.2741 23.7371 63.2443 24.9311 67.5391 24.7598C68.0268 24.7402 68.5161 24.7468 69.0038 24.7598C69.5976 24.7761 69.8814 25.0714 69.9042 25.6716C69.9091 25.7939 69.9042 25.9163 69.9042 26.0386C69.9417 30.1882 69.9923 34.3379 70.0119 38.4891C70.0315 42.8051 69.7949 47.0982 69.0838 51.3686C68.0643 57.4837 65.0418 62.444 60.5399 66.5855C56.6887 70.1299 52.2162 72.73 47.5756 75.0706C46.8269 75.4491 46.101 75.8764 45.3654 76.2809H44.633H44.6346ZM21.8003 26.4937C21.8003 26.6731 21.8003 26.8118 21.8003 26.9521C21.7856 30.105 21.7742 33.2597 21.7547 36.4127C21.7269 40.8673 21.6829 45.317 22.3859 49.7407C23.4445 56.4023 26.5241 61.9041 31.6638 66.2674C35.3486 69.3959 39.5096 71.7594 43.7832 73.9598C44.6102 74.3856 45.3654 74.4622 46.1597 73.9288C46.4436 73.738 46.7747 73.6157 47.0813 73.4574C51.4854 71.1902 55.7459 68.7059 59.3997 65.3083C62.4825 62.4424 64.9358 59.1312 66.3304 55.1283C67.6614 51.3098 68.0839 47.3152 68.172 43.3124C68.2927 37.8627 68.2013 32.4082 68.1981 26.9553C68.1981 26.8004 68.1703 26.647 68.1556 26.4953C58.6934 26.74 51.2391 22.6768 44.9853 15.9027C38.8017 22.7698 31.2805 26.6813 21.7987 26.4937H21.8003Z" fill="black"/>
<path d="M66.7644 37.2086C66.5866 40.74 66.5247 44.2828 66.2066 47.8028C65.546 55.1266 62.2674 61.0607 56.4361 65.5839C53.0123 68.2394 49.2721 70.3566 45.3916 72.2438C45.1861 72.3433 44.8517 72.3629 44.6544 72.265C40.3041 70.1233 36.0974 67.7533 32.4094 64.5579C27.7802 60.5469 25.0334 55.5181 24.1199 49.4601C23.5197 45.4801 23.4936 41.4789 23.4985 37.4728C23.5017 34.7472 23.5083 32.0199 23.5148 29.2943C23.5164 28.4477 23.7448 28.2406 24.5799 28.1672C31.1632 27.5849 37.0222 25.2181 42.1114 20.9885C42.7671 20.4437 43.3853 19.85 44.0019 19.2595C44.8468 18.4505 45.1665 18.4391 45.9837 19.2383C50.0811 23.2558 54.9077 25.9912 60.4813 27.3483C62.1499 27.7545 63.8773 27.9225 65.5835 28.1704C66.2082 28.2618 66.4839 28.4983 66.4855 29.1491C66.492 31.834 66.4871 34.5188 66.4871 37.2037L66.7644 37.2102V37.2086ZM25.2177 29.9223C25.2177 30.1327 25.2177 30.3317 25.2177 30.5307C25.2177 33.7864 25.1394 37.0438 25.2389 40.2963C25.3286 43.2177 25.4852 46.1505 25.8441 49.049C26.5748 54.957 29.3428 59.7901 33.9117 63.6134C37.1935 66.3603 40.8701 68.4677 44.6837 70.3549C44.8615 70.443 45.1616 70.4283 45.346 70.3386C48.8284 68.6504 52.1853 66.7534 55.2404 64.3589C58.6283 61.7018 61.3442 58.5227 62.9084 54.453C64.1334 51.2674 64.6684 47.9317 64.7483 44.5552C64.8625 39.758 64.7777 34.956 64.7777 30.1572C64.7777 30.0789 64.7565 30.0006 64.7418 29.9011C57.1652 29.0186 50.5982 25.9635 45.0099 20.7602C39.4086 26.0043 32.8433 29.0578 25.2177 29.9223Z" fill="black"/>
<path d="M36.8233 40.6308C36.8233 39.5346 36.8184 38.5201 36.8233 37.5055C36.8494 33.4195 40.2308 29.8016 44.2727 29.5325C48.623 29.2422 52.4056 32.1537 53.0564 36.305C53.1315 36.7845 53.1641 37.2739 53.1739 37.76C53.1918 38.6913 53.1788 39.6244 53.1788 40.6324C53.6616 40.6324 54.102 40.6259 54.5424 40.6324C55.1867 40.6438 55.495 40.926 55.495 41.5507C55.4999 44.8065 55.6287 48.0688 55.4591 51.3164C55.2161 55.97 51.9179 59.5993 47.2528 60.3757C44.232 60.8781 41.2763 60.5894 38.6894 58.7022C35.9017 56.6681 34.375 53.9572 34.3799 50.4551C34.3832 47.5452 34.3799 44.6352 34.3799 41.7253C34.3799 40.8966 34.6409 40.6373 35.4679 40.6324C35.892 40.6308 36.3161 40.6324 36.8217 40.6324L36.8233 40.6308ZM53.686 42.3761H36.0861C36.0861 45.0985 36.0518 47.7817 36.0942 50.4616C36.1497 53.9115 37.7988 56.4071 40.8392 57.9747C42.7199 58.9452 44.749 58.9501 46.7945 58.7119C50.2558 58.3074 53.4202 55.2833 53.6436 51.7992C53.8426 48.6853 53.686 45.547 53.686 42.3761ZM51.4547 40.6161C51.4547 39.4857 51.515 38.4092 51.4432 37.3391C51.2214 34.0344 48.6899 31.5111 45.3884 31.2436C42.3562 30.9973 39.3989 33.1504 38.7432 36.2773C38.4528 37.6654 38.536 39.1318 38.4463 40.5916H40.973C40.973 39.5836 40.9501 38.6098 40.9778 37.6376C41.0284 35.8972 41.8978 34.6575 43.4702 33.9839C45.0133 33.3233 46.465 33.6201 47.7128 34.7407C48.5855 35.5253 49.0324 36.5252 49.0259 37.7127C49.021 38.6783 49.0259 39.6456 49.0259 40.6145H51.4547V40.6161ZM42.6824 40.5867H47.3213C47.3213 40.3633 47.3213 40.1838 47.3213 40.0028C47.3213 39.2101 47.3523 38.4173 47.3083 37.6262C47.2414 36.3963 46.1681 35.3785 44.9986 35.3785C43.8291 35.3785 42.7476 36.3996 42.6905 37.6262C42.6449 38.5967 42.6808 39.5705 42.6808 40.5851L42.6824 40.5867Z" fill="black"/>
<path d="M45.8532 51.2967C45.8532 52.3227 45.8565 53.3552 45.8532 54.3893C45.8499 55.0597 45.5482 55.4055 44.9903 55.399C44.4406 55.3925 44.1536 55.0467 44.1503 54.3665C44.1454 53.4922 44.1372 52.6179 44.1552 51.7453C44.1617 51.4288 44.0916 51.2543 43.7702 51.0993C42.5355 50.5007 41.9385 49.1844 42.2614 47.8974C42.5958 46.5664 43.6756 45.7443 45.0751 45.7606C46.3801 45.7753 47.4354 46.6284 47.7486 47.9202C48.0618 49.2088 47.4387 50.5089 46.2169 51.1205C46.1093 51.1744 45.9984 51.2266 45.8548 51.2983L45.8532 51.2967ZM44.9789 49.659C45.5531 49.6721 46.0799 49.1648 46.093 48.5857C46.106 48.01 45.6004 47.4847 45.0197 47.4717C44.4455 47.4586 43.9187 47.9659 43.9056 48.545C43.8926 49.1191 44.3982 49.646 44.9789 49.659Z" fill="black"/>
</svg>
