<svg width="90" height="90" viewBox="0 0 90 90" fill="none" xmlns="http://www.w3.org/2000/svg">
<circle cx="45" cy="45" r="45" fill="#C9F5CD"/>
<path d="M52.5436 58.4044C49.1002 59.4199 47.4223 58.3338 46.8288 54.756C45.1508 54.3878 44.0109 53.4042 43.8007 51.6573C43.7167 50.968 43.868 50.1542 44.1858 49.5372C44.5792 48.7755 45.2013 48.1013 45.8334 47.5045C46.1966 47.1615 46.2588 46.921 46.1361 46.4755C44.3152 39.8814 42.5078 33.2839 40.7021 26.6864C40.1271 24.5848 41.0888 22.9522 43.2022 22.3772C48.0057 21.0691 52.821 19.8048 57.5976 18.4059C59.6555 17.8024 61.6597 18.601 62.3271 21.1431C64.2186 28.3341 66.2345 35.4915 68.2134 42.6589C68.2824 42.9111 68.4505 43.1986 68.659 43.3398C69.6795 44.0258 70.6849 44.7521 71.7778 45.3053C74.0526 46.4553 74.6512 49.3421 73.9484 51.1731C72.6689 54.4987 71.492 57.8647 70.305 61.2257C69.6493 63.0802 69.5484 64.9901 69.8762 66.932C69.925 67.2212 69.8443 67.6298 69.661 67.845C69.081 68.5259 68.511 69.2674 67.783 69.7617C63.689 72.5359 58.524 72.3391 54.5847 69.8979C54.0214 69.5499 53.5574 69.0219 53.1001 68.5293C52.7184 68.1174 52.7352 67.6348 53.0934 67.1842C53.7289 66.3856 53.7524 65.6189 53.2127 64.7043C52.0947 62.8111 51.6003 60.8961 52.5436 58.4044ZM60.8678 47.9382C62.4078 47.5179 63.9883 47.0908 65.5653 46.6554C66.6683 46.3511 66.9659 45.808 66.6548 44.6714C64.5448 36.9475 62.4331 29.2235 60.3213 21.5012C59.9834 20.2672 59.4706 19.9763 58.2382 20.3142C53.4397 21.629 48.6396 22.9455 43.8411 24.2586C42.6373 24.5881 42.343 25.0925 42.6709 26.2964C43.8007 30.4458 44.9289 34.597 46.0638 38.7448C47.0692 42.4185 48.0797 46.0921 49.0918 49.7641C49.3037 50.5342 49.6618 50.8688 50.3377 50.7544C51.217 50.6065 52.0778 50.3476 52.9605 50.1323C52.9185 49.9642 52.905 49.8835 52.8781 49.8079C52.3267 48.2442 51.7332 46.6924 51.2288 45.1136C50.4184 42.5816 52.6512 40.981 54.4989 41.2247C56.6594 41.5106 58.213 42.7278 59.2957 44.5201C59.9245 45.5609 60.3264 46.7378 60.8678 47.9382ZM55.1446 67.8904C55.6641 68.2014 56.1954 68.5898 56.7838 68.8555C58.8081 69.7684 60.9485 69.9668 63.1073 69.5852C64.7583 69.2926 66.3068 68.6621 67.5005 67.4112C67.704 67.1977 67.7931 66.8127 67.8099 66.4999C67.8805 65.1532 67.7057 63.7611 67.9915 62.4665C68.4219 60.5178 69.1264 58.6247 69.7838 56.7315C70.5286 54.5845 71.3676 52.4711 72.1326 50.3307C72.5041 49.2917 72.294 48.256 71.4869 47.5599C70.7018 46.8824 69.7115 46.4402 68.7767 45.8719C68.548 46.8538 68.1243 47.6255 67.329 48.0442C66.5809 48.4376 65.7453 48.6662 64.8945 48.9891C65.3737 49.2799 65.6461 49.8617 66.4043 49.67C66.6532 49.6078 67.1374 49.8953 67.2803 50.1525C67.4232 50.4098 67.3997 50.9091 67.2332 51.1613C66.8633 51.7195 66.3875 52.2189 65.9016 52.6863C65.3939 53.1738 64.8222 53.5959 64.1665 54.1389C64.7802 54.3575 65.3249 54.4819 65.794 54.7408C66.0966 54.909 66.4161 55.2402 66.4968 55.5579C66.5624 55.8169 66.369 56.3112 66.1437 56.4356C65.831 56.6088 65.3417 56.6592 64.9954 56.5499C62.3507 55.7143 60.5735 53.9859 59.7312 51.3143C59.215 49.675 58.6871 48.0374 58.0969 46.4234C57.6195 45.1187 56.6746 44.1721 55.4405 43.555C55.0353 43.3516 54.546 43.2339 54.0937 43.2255C53.3355 43.2121 52.9353 43.7803 53.1589 44.5067C53.3943 45.2683 53.6717 46.0199 53.9744 46.7579C55.7028 50.9797 56.1466 55.2183 54.3274 59.5494C54.082 60.1345 54.0315 60.9079 54.1795 61.5249C54.4031 62.4648 54.8251 63.3727 55.2673 64.2386C55.6237 64.938 55.7313 65.6425 55.612 66.3806C55.5346 66.8581 55.3295 67.3137 55.1479 67.8887L55.1446 67.8904ZM53.4229 52.0121C52.789 52.2407 52.2123 52.3534 51.7399 52.6392C50.8555 53.1755 50.0283 53.8077 49.1843 54.4079C49.0632 54.4937 48.9052 54.6181 48.8867 54.7425C48.764 55.6202 49.5744 57.1619 50.7883 56.7904C51.6457 56.5281 52.4259 56.0052 53.2262 55.5697C53.3355 55.5109 53.4128 55.2923 53.4145 55.146C53.4313 54.1473 53.4229 53.1486 53.4229 52.0104V52.0121ZM62.5289 52.809C63.2737 52.2441 63.884 51.7817 64.533 51.2891C64.0404 50.8772 63.5629 50.5729 63.2132 50.1593C62.6432 49.4884 62.0531 49.5489 61.2999 49.9894C61.6899 50.8839 62.085 51.7901 62.5306 52.809H62.5289ZM46.8843 49.2295C45.7426 50.2416 45.4585 51.2672 46.0268 52.0978C46.543 52.8527 47.5971 52.9855 48.6883 52.3904C47.4979 51.6859 47.1852 50.4888 46.8859 49.2295H46.8843Z" fill="black"/>
<path d="M43.8854 60.2202C44.79 60.1445 46.1417 60.0453 47.4901 59.9159C48.2114 59.8453 48.7528 60.1546 48.847 60.7515C48.9411 61.3484 48.5141 61.8511 47.7861 61.925C44.3444 62.2764 40.9061 62.3521 37.4645 61.8595C33.2528 61.2576 29.2832 59.973 25.6364 57.7672C22.0687 55.6083 19.0978 52.8409 17.3257 49.0041C14.7079 43.3348 15.4712 37.9613 19.118 33.0014C22.3108 28.6586 26.736 26.0172 31.79 24.3931C33.5588 23.8248 35.4015 23.4801 37.2123 23.0396C37.3703 23.0009 37.5368 22.9908 37.7015 22.9791C38.3203 22.9354 38.7826 23.2784 38.8583 23.8332C38.9323 24.3628 38.5523 24.8386 37.9537 24.9647C36.7718 25.2152 35.578 25.4237 34.4078 25.7196C29.8532 26.8696 25.7373 28.8536 22.3814 32.2179C20.189 34.4171 18.627 36.9861 18.0419 40.0713C17.329 43.824 18.2235 47.2388 20.3722 50.3425C22.7849 53.8295 26.1375 56.1329 29.9826 57.7739C34.2784 59.6065 38.7893 60.3026 43.8854 60.2252V60.2202Z" fill="black"/>
<path d="M39.3547 42.4454C39.3311 46.0384 38.4333 49.4179 36.8445 52.6258C36.5351 53.2513 36.0189 53.4597 35.4893 53.2109C34.9362 52.9503 34.7613 52.4005 35.0757 51.7448C36.0929 49.6263 36.8377 47.4289 37.1757 45.0918C37.6683 41.6737 37.1622 38.3901 35.9197 35.1973C35.6524 34.5113 35.3245 33.8472 35.0387 33.168C34.7714 32.5358 34.9412 32.0129 35.4792 31.759C36.0156 31.5051 36.5334 31.7069 36.8411 32.3273C38.4249 35.5134 39.3193 38.8727 39.3563 42.4438L39.3547 42.4454Z" fill="black"/>
<path d="M34.8013 42.173C34.7744 45.4398 33.9219 48.1971 32.5887 50.8267C32.2944 51.4067 31.7766 51.5866 31.2571 51.3412C30.7325 51.0923 30.5845 50.556 30.8166 49.9255C31.3815 48.3921 32.0641 46.8857 32.4474 45.3052C33.2494 42.0015 32.5769 38.8372 31.1797 35.7957C31.0435 35.4981 30.8788 35.2106 30.7661 34.9046C30.5644 34.3532 30.7829 33.837 31.2806 33.6151C31.7615 33.4015 32.2894 33.5478 32.545 34.0488C33.6176 36.1421 34.4045 38.3312 34.6752 40.6816C34.7441 41.2718 34.7761 41.867 34.7996 42.1713L34.8013 42.173Z" fill="black"/>
<path d="M30.2353 42.2436C30.2084 44.806 29.4871 46.9631 28.3556 49.0008C28.0597 49.5355 27.4813 49.7019 26.9887 49.4413C26.5095 49.1875 26.3733 48.6309 26.6003 48.0576C27.0896 46.8252 27.6949 45.6163 28.0025 44.3369C28.586 41.9191 28.0025 39.6225 26.8895 37.4435C26.787 37.2434 26.6676 37.05 26.5768 36.8432C26.3481 36.317 26.5263 35.7638 26.9904 35.5184C27.4679 35.2679 28.0362 35.4091 28.3203 35.9084C29.2114 37.4704 29.8503 39.1281 30.1092 40.9154C30.1815 41.4215 30.2067 41.9359 30.2353 42.2419V42.2436Z" fill="black"/>
<path d="M25.7979 42.4639C25.7542 43.9317 25.4196 45.2885 24.6933 46.5377C24.3217 47.1766 23.7366 47.3851 23.2154 47.0707C22.701 46.7613 22.6051 46.2283 22.9582 45.5693C24.041 43.5382 24.0595 41.5038 22.9935 39.461C22.6371 38.7768 22.7413 38.2286 23.281 37.9226C23.8291 37.6116 24.3453 37.815 24.737 38.5027C25.4432 39.7401 25.7559 41.0802 25.7979 42.4639Z" fill="black"/>
<path d="M57.6104 31.996C57.6171 32.4937 57.3582 32.8282 56.9026 32.9577C55.2684 33.4234 53.6291 33.8774 51.9847 34.3095C51.4366 34.4541 50.9491 34.1716 50.7876 33.6033C50.2227 31.6126 49.6797 29.6169 49.15 27.6178C48.9987 27.0479 49.2997 26.5603 49.8999 26.3905C51.4972 25.9399 53.0995 25.5128 54.7017 25.0807C55.2633 24.9294 55.7358 25.1194 55.8955 25.6591C56.4957 27.7019 57.0438 29.7598 57.6087 31.8127C57.6239 31.8699 57.6104 31.9355 57.6104 31.9977V31.996ZM51.3442 28.0668C51.7258 29.4639 52.0839 30.7804 52.4471 32.1103C53.4609 31.8312 54.4008 31.5723 55.3894 31.3016C55.0128 29.9313 54.6547 28.6199 54.2797 27.2547C53.276 27.5321 52.3395 27.7927 51.3442 28.0684V28.0668Z" fill="black"/>
</svg>
