<svg width="90" height="90" viewBox="0 0 90 90" fill="none" xmlns="http://www.w3.org/2000/svg">
<circle cx="45" cy="45" r="45" fill="#C9F5CD"/>
<path d="M66.1908 37.3893C66.1908 40.9007 66.1988 44.4122 66.1829 47.9236C66.1797 48.5359 66.1145 49.1529 66.0079 49.7557C65.9411 50.1294 66.0318 50.3171 66.3451 50.5254C69.0439 52.3193 70.7535 54.797 71.4627 57.9681C72.8638 64.2276 68.6081 70.7193 62.3136 71.9232C59.2602 72.5069 56.4055 72.0154 53.7624 70.3758C53.4459 70.1786 53.2424 70.255 52.9736 70.4299C49.8534 72.4607 46.4787 73.8904 42.8099 74.5504C42.1785 74.6633 41.4644 74.5568 40.8331 74.385C28.9438 71.144 21.5599 63.5263 18.8453 51.4955C18.4175 49.6014 18.3252 47.6024 18.3061 45.6495C18.2409 39.32 18.2918 32.9905 18.2696 26.661C18.2664 25.8515 18.5463 25.4142 19.3049 25.0913C26.738 21.9361 34.1585 18.7507 41.5758 15.5589C42.0767 15.3426 42.4997 15.3569 42.9912 15.5669C50.4259 18.7618 57.8623 21.9504 65.3082 25.1168C66.0207 25.4189 66.2894 25.861 66.2846 26.6149C66.264 30.2058 66.2751 33.7984 66.2751 37.3893C66.2465 37.3893 66.2194 37.3893 66.1908 37.3893ZM34.3446 39.4074C35.0475 39.3343 35.5421 38.9939 35.8713 38.4342C36.7571 36.9297 37.9514 35.7465 39.4718 34.8877C39.6785 34.7716 39.8614 34.6158 40.0538 34.4742C40.9985 33.7824 41.6553 32.8887 41.9399 31.7437C42.2167 30.6304 42.4886 29.5156 42.7494 28.3976C42.9689 27.4593 43.4237 27.1985 44.3588 27.4943C45.6486 27.903 46.5455 28.7332 47.0624 29.9832C47.5713 31.2141 47.6254 32.5022 47.4202 33.784C47.2437 34.8877 46.9256 35.9676 46.6553 37.1142C46.835 37.1142 47.0465 37.1142 47.258 37.1142C49.2825 37.1142 51.3054 37.0999 53.3299 37.1205C55.0569 37.138 56.3881 38.1781 56.5996 39.805C56.6934 40.5302 56.4644 41.2967 56.3753 42.1014C58.3473 43.3896 58.4268 45.9723 56.59 47.5229C56.7825 47.992 56.9717 48.4564 57.1737 48.951C59.5162 48.3546 61.8111 48.5566 64.1329 49.3581C64.1918 48.6265 64.2872 47.9809 64.2888 47.3336C64.3047 40.6447 64.3015 33.9574 64.3254 27.2685C64.327 26.8184 64.0916 26.7039 63.7719 26.5671C56.765 23.571 49.7596 20.5684 42.7463 17.5882C42.4807 17.4753 42.0847 17.4705 41.8207 17.5834C34.7739 20.5812 27.7368 23.6044 20.6916 26.6053C20.3147 26.7659 20.2129 26.96 20.2145 27.3496C20.2288 33.7395 20.1811 40.131 20.2575 46.521C20.2797 48.3307 20.4499 50.1882 20.9 51.936C23.656 62.6421 30.3799 69.5123 41.0653 72.4448C41.5519 72.5784 42.099 72.72 42.5729 72.6293C45.876 71.9995 48.931 70.7289 51.7857 68.8952C48.5573 65.5794 47.5315 61.664 48.5907 57.1539C46.28 57.1539 44.0392 57.1396 41.8 57.1586C39.9377 57.173 38.1327 56.8708 36.377 56.2585C35.6979 56.0216 35.0173 55.7862 34.3159 55.5429C34.2825 57.3813 33.1995 57.9904 31.7984 57.8886C30.7918 57.8154 29.7756 57.8759 28.7641 57.8743C27.4107 57.8711 26.6537 57.138 26.6522 55.7925C26.6474 50.4141 26.6474 45.0356 26.6522 39.6571C26.6522 38.3212 27.4235 37.5515 28.753 37.5436C29.7851 37.5356 30.8172 37.542 31.8478 37.5436C33.3602 37.5436 33.9231 37.9586 34.3446 39.4138V39.4074ZM34.2793 41.3413C34.2793 41.6053 34.2793 41.8184 34.2793 42.0331C34.2793 45.4268 34.2793 48.8206 34.2793 52.2159C34.2793 53.45 34.2603 53.5088 35.4435 53.8746C36.9877 54.3517 38.5462 54.9719 40.1302 55.088C43.0723 55.3043 46.0382 55.2025 48.993 55.2216C49.1473 55.2216 49.3684 55.158 49.4431 55.0467C49.9663 54.2658 50.4577 53.4659 50.9889 52.6262C49.9138 52.6262 48.8674 52.6278 47.8194 52.6262C47.0306 52.6246 46.5726 52.2732 46.563 51.672C46.5535 51.0645 46.9988 50.7083 47.7939 50.7051C49.4606 50.7003 51.1273 50.7146 52.7939 50.6924C53.0722 50.6892 53.3649 50.5779 53.6209 50.457C54.0487 50.2534 54.4733 50.0292 54.8613 49.7573C55.014 49.6507 55.1524 49.3915 55.1412 49.2102C55.1031 48.5391 54.5465 48.1017 53.772 48.1001C51.7872 48.0938 49.8025 48.1001 47.8194 48.097C47.0322 48.097 46.5726 47.7439 46.563 47.1428C46.5535 46.5353 46.9972 46.1822 47.7924 46.1679C47.9307 46.1647 48.0707 46.1679 48.209 46.1679C50.2733 46.1679 52.3359 46.1727 54.4001 46.1647C55.3925 46.1615 55.973 45.659 55.9603 44.8432C55.9491 44.0623 55.3607 43.5757 54.4161 43.5741C53.2456 43.5709 52.0751 43.5741 50.903 43.5741C49.7914 43.5741 48.6798 43.5773 47.5697 43.5709C47.1037 43.5677 46.7061 43.3419 46.6441 42.8934C46.5996 42.5722 46.7236 42.1428 46.932 41.8979C47.0958 41.7054 47.5029 41.6577 47.8035 41.653C49.5687 41.6323 51.3356 41.653 53.1025 41.6339C53.4301 41.6307 53.7847 41.5766 54.0757 41.4383C54.6005 41.1902 54.8248 40.5811 54.6784 40.0261C54.5162 39.4074 54.0582 39.0544 53.3601 39.0512C50.6215 39.0448 47.883 39.0448 45.1445 39.0512C44.6817 39.0512 44.2666 38.9812 44.0328 38.5296C43.8022 38.0843 43.974 37.7185 44.2221 37.3193C45.348 35.5064 45.8172 33.5344 45.4705 31.4097C45.3623 30.7497 45.0967 30.1327 44.4574 29.7255C44.4081 29.8957 44.3731 30.007 44.3445 30.1215C44.3159 30.236 44.2857 30.3521 44.2682 30.4698C43.8293 33.3992 42.4218 35.6511 39.7405 37.0458C38.718 37.5786 38.1184 38.5423 37.5093 39.4726C36.765 40.6097 35.7583 41.2856 34.2793 41.3413ZM69.7786 60.4204C69.7865 54.9751 65.4259 50.5858 59.9774 50.5588C54.5576 50.5318 50.119 54.9401 50.1126 60.36C50.1063 65.7893 54.4972 70.2152 59.917 70.2438C65.3146 70.2725 69.7706 65.8339 69.7786 60.4204ZM32.3169 55.9373V39.5394H28.6035V55.9373H32.3169Z" fill="black"/>
<path d="M58.6226 60.1389C58.7832 59.8686 58.8627 59.6475 59.0122 59.4949C60.329 58.1447 61.6505 56.8008 62.9832 55.4681C64.0965 54.3549 65.655 54.3024 66.703 55.3234C67.7828 56.3746 67.7606 57.922 66.6219 59.083C64.5799 61.1663 62.53 63.2401 60.4705 65.3075C59.2953 66.4875 57.8035 66.4955 56.6235 65.3361C55.4912 64.2229 54.3684 63.1001 53.2568 61.9678C52.1468 60.8355 52.1181 59.2945 53.1646 58.2464C54.1935 57.2159 55.779 57.2461 56.8875 58.3355C57.4234 58.8635 57.9324 59.4185 58.6226 60.1389ZM58.5589 64.3056C58.7864 64.1418 59.0281 64.013 59.2126 63.8269C61.1973 61.831 63.1725 59.8256 65.1508 57.8218C65.2335 57.7375 65.3783 57.6517 65.3814 57.561C65.3942 57.2748 65.453 56.909 65.3051 56.7261C65.1938 56.5893 64.7835 56.6434 64.5227 56.6975C64.3748 56.7277 64.2587 56.9249 64.133 57.0505C62.5729 58.6297 61.0144 60.2105 59.4511 61.7881C58.7625 62.4831 58.3172 62.4863 57.635 61.8104C56.9305 61.1122 56.2307 60.4109 55.531 59.7095C55.2272 59.4058 54.8837 59.2674 54.5497 59.6173C54.2301 59.9513 54.3287 60.3043 54.6356 60.6129C55.7552 61.7356 56.8732 62.8616 58.0007 63.9748C58.1327 64.1052 58.3283 64.172 58.5573 64.3056H58.5589Z" fill="black"/>
</svg>
