<svg width="108" height="108" viewBox="0 0 108 108" fill="none" xmlns="http://www.w3.org/2000/svg">
<circle cx="54.0005" cy="53.8541" r="53.3716" fill="#A0EFA6"/>
<path d="M50.1962 85.1061C48.9415 84.7702 47.6589 84.5126 46.4352 84.0887C34.6876 80.0243 27.3095 71.9442 24.2339 59.9578C23.5992 57.4862 23.3652 54.9542 23.3652 52.4043C23.3652 45.6302 23.3652 38.8577 23.3652 32.0836C23.3652 30.9651 23.7464 30.5722 24.8441 30.5266C28.3761 30.3815 31.0689 28.6451 33.2725 26.0447C33.9661 25.2263 34.5452 24.3067 35.1211 23.3986C35.463 22.859 35.8785 22.6014 36.5182 22.6047C39.2747 22.6193 42.0296 22.6079 44.7862 22.6128C45.6647 22.6128 46.2258 23.1101 46.2144 23.8502C46.2029 24.5643 45.65 25.0469 44.8042 25.0486C42.3961 25.0551 39.9863 25.0616 37.5782 25.0404C37.1611 25.0371 36.932 25.1725 36.7063 25.5197C34.6925 28.619 32.1175 31.0695 28.5446 32.2955C27.6857 32.5906 26.7778 32.7487 25.8142 32.99C25.8142 33.1531 25.8142 33.3715 25.8142 33.59C25.8142 39.7935 25.7194 46.0003 25.8339 52.2022C26.0547 64.1397 31.4026 73.1947 41.6354 79.3672C44.2349 80.9356 47.0847 81.9318 50.067 82.5252C50.4318 82.597 50.8391 82.5904 51.204 82.5138C55.2873 81.6481 59.0237 79.99 62.4281 77.5836C62.7209 77.3765 62.7946 77.2005 62.703 76.8385C60.9263 69.8084 65.8554 63.2185 73.1304 62.9022C73.5001 62.8859 73.6097 62.7294 73.7079 62.4343C74.8023 59.1883 75.3487 55.8558 75.3455 52.4321C75.3406 46.1063 75.3455 39.7805 75.3438 33.4547C75.3438 33.2949 75.3275 33.1335 75.3226 33.0389C74.1349 32.69 72.9521 32.4439 71.8527 32.0004C68.6758 30.7173 66.3478 28.4201 64.5123 25.5964C64.2473 25.1871 63.9741 25.0371 63.4898 25.042C61.0196 25.0665 58.5493 25.0763 56.0807 25.0306C55.6635 25.0225 55.1351 24.8138 54.875 24.5122C54.6574 24.2595 54.6394 23.7035 54.7425 23.3399C54.8963 22.8003 55.405 22.6112 55.9613 22.6112C57.8802 22.6112 59.7992 22.6112 61.7181 22.6112C62.6768 22.6112 63.6371 22.634 64.5957 22.603C65.291 22.5818 65.7343 22.8688 66.0763 23.4639C67.4733 25.8882 69.3023 27.9033 71.7808 29.2761C73.1958 30.0603 74.7205 30.4662 76.3368 30.5282C77.3822 30.5673 77.7912 30.9586 77.7912 31.9808C77.7912 39.0191 77.7945 46.0574 77.7748 53.094C77.7667 56.3498 77.2072 59.5241 76.2141 62.6234C76.1602 62.793 76.1225 62.9691 76.0996 63.0571C77.1581 63.5397 78.2198 63.9196 79.1768 64.4755C85.2838 68.0313 87.1586 77.2885 80.1273 82.804C78.601 84.0007 76.9094 84.7865 74.9676 85.0001C74.8727 85.0099 74.7843 85.0686 74.6927 85.1061H72.3648C72.2486 85.0718 72.1358 85.018 72.0163 85.0034C69.8962 84.736 67.987 83.9436 66.3953 82.5383C65.4301 81.6872 64.6137 80.6682 63.6911 79.6835C63.642 79.7161 63.4898 79.8123 63.341 79.9134C60.7202 81.7084 57.9048 83.1122 54.8685 84.0529C53.5712 84.4556 52.2411 84.7572 50.9275 85.1044H50.1929L50.1962 85.1061ZM64.7708 74.0001C64.7708 78.7558 68.6888 82.6622 73.4576 82.6638C78.2476 82.6638 82.1591 78.7868 82.169 74.0278C82.1788 69.2737 78.2116 65.32 73.4396 65.3282C68.6545 65.3363 64.7708 69.2231 64.7724 74.0001H64.7708Z" fill="black"/>
<path d="M44.6663 51.9251C44.6663 49.9735 44.519 48.009 44.7006 46.0754C44.9706 43.1913 47.5995 41.0376 50.5409 41.0506C53.4185 41.0636 55.9706 43.2744 56.3141 46.1161C56.4287 47.0601 56.409 48.0236 56.4156 48.9774C56.4287 51.1132 56.4352 53.2489 56.4123 55.3847C56.3976 56.7966 55.7792 57.9069 54.5195 58.5786C53.3318 59.2112 52.1147 59.1769 50.9679 58.4563C49.9569 57.8205 49.3385 56.8797 49.3172 55.6847C49.2698 52.8984 49.2813 50.1121 49.296 47.3258C49.2992 46.5987 49.8162 46.1112 50.4755 46.0933C51.1495 46.0754 51.6959 46.5759 51.7139 47.3356C51.7482 48.86 51.7303 50.386 51.7319 51.912C51.7319 53.0305 51.7221 54.1505 51.7368 55.269C51.7466 56.0825 52.1441 56.5374 52.8149 56.5537C53.5052 56.57 53.9633 56.0841 53.9666 55.2657C53.9764 52.499 53.996 49.7323 53.96 46.9672C53.9355 44.9912 52.4124 43.4978 50.5082 43.4929C48.6482 43.488 47.0776 44.9602 47.0482 46.9003C46.9959 50.2964 46.9811 53.6957 47.0531 57.0901C47.1104 59.7019 49.0997 61.6632 51.727 61.8328C52.7445 61.898 53.7686 61.8784 54.7878 61.8572C56.5072 61.8214 57.8732 62.4409 58.8875 63.8544C59.2261 64.3256 59.6694 64.7316 60.1128 65.1114C60.6101 65.5386 60.7672 66.1092 60.4514 66.6831C60.1455 67.2407 59.4584 67.495 58.8727 67.1836C58.467 66.9684 58.099 66.6586 57.7652 66.3391C57.4446 66.031 57.1599 65.6739 56.9113 65.3054C56.4188 64.5767 55.7416 64.2881 54.8778 64.2979C53.7359 64.3126 52.5875 64.3452 51.4505 64.2588C47.5488 63.9637 44.6254 60.8285 44.5812 56.9303C44.5632 55.2624 44.5779 53.5946 44.5779 51.9267C44.6074 51.9267 44.6368 51.9267 44.6663 51.9267V51.9251Z" fill="black"/>
<path d="M34.4639 50.7284C34.5588 48.6791 34.5228 46.6134 34.7731 44.582C35.6107 37.8111 41.4591 32.0413 48.2581 31.1478C57.3195 29.9577 65.2587 35.9427 66.5707 44.9716C66.6787 45.7134 66.7163 46.4716 66.7212 47.2215C66.7376 50.1301 66.7294 53.0403 66.7262 55.9488C66.7262 56.1706 66.7229 56.4004 66.6656 56.6124C66.5168 57.1765 65.9998 57.5401 65.4338 57.5123C64.8776 57.4846 64.3933 57.0558 64.3001 56.4885C64.2673 56.2896 64.2788 56.0825 64.2788 55.8787C64.2788 52.9082 64.2968 49.9377 64.2739 46.9688C64.2248 40.4604 59.7407 35.0216 53.3475 33.6847C46.1199 32.1733 38.8531 36.9128 37.3529 44.1548C37.1321 45.2227 37.0356 46.3314 37.0176 47.4221C36.9718 50.2083 37.0028 52.9963 37.0012 55.7825C37.0012 56.0059 37.0061 56.2309 36.9783 56.4526C36.908 57.0363 36.4613 57.4585 35.8855 57.5091C35.3227 57.5596 34.7927 57.2091 34.6389 56.6417C34.5702 56.3907 34.5571 56.12 34.5555 55.8575C34.5489 54.1489 34.5522 52.4403 34.5522 50.7317C34.5228 50.7317 34.4933 50.7284 34.4639 50.7284Z" fill="black"/>
<path d="M59.0402 51.7571C59.0402 49.7648 59.1924 47.7594 59.0075 45.785C58.6394 41.8331 55.2792 38.6278 51.443 38.3555C47.1486 38.0506 43.4416 40.5842 42.3831 44.6096C42.1639 45.4443 42.0854 46.3345 42.074 47.2002C42.038 50.2506 42.0592 53.3026 42.0592 56.353C42.0592 58.8507 41.0695 60.8382 38.9918 62.2647C38.8413 62.3674 38.6827 62.4636 38.5191 62.5435C37.8958 62.8451 37.1923 62.643 36.8684 62.0772C36.5429 61.5066 36.6655 60.8267 37.2643 60.4762C39.0556 59.4311 39.6609 57.8481 39.6233 55.8558C39.5677 52.8673 39.589 49.8756 39.6151 46.8855C39.6626 41.5494 43.1635 37.2306 48.3281 36.0991C54.5643 34.7328 60.8938 39.2897 61.4532 45.6269C61.6217 47.5458 61.5498 49.486 61.5678 51.4179C61.5841 53.1266 61.5678 54.8352 61.5727 56.5438C61.5792 58.285 62.371 59.5714 63.8728 60.4371C63.9611 60.4876 64.056 60.5284 64.1411 60.5838C64.7218 60.9604 64.9214 61.6028 64.6351 62.1702C64.3407 62.7522 63.6029 63.075 63.0254 62.7147C62.2058 62.2028 61.3796 61.6387 60.7253 60.9392C59.6488 59.7882 59.1417 58.347 59.1286 56.7606C59.1155 55.0928 59.1253 53.4249 59.1253 51.7571C59.0959 51.7571 59.0681 51.7571 59.0386 51.7571H59.0402Z" fill="black"/>
<path d="M52.7499 69.9275C50.0637 69.8916 47.7178 68.9966 45.5943 67.3401C44.7878 66.7108 43.7474 66.3326 42.7576 66.0065C42.3012 65.8565 41.6861 66.0358 41.1871 66.2005C40.5507 66.4108 39.9046 66.2902 39.5725 65.7505C39.2502 65.2255 39.3843 64.5294 39.9226 64.1185C40.8518 63.4093 41.9315 63.3686 43.0194 63.5463C44.5555 63.799 45.9559 64.4136 47.1452 65.4147C48.845 66.8461 50.7999 67.4966 53.0019 67.4885C53.3683 67.4885 53.738 67.4754 54.1028 67.5064C54.7654 67.5619 55.2104 68.0265 55.2333 68.646C55.2562 69.3063 54.8407 69.7922 54.1568 69.903C54.0767 69.9161 53.9949 69.9259 53.9131 69.9275C53.5254 69.9291 53.1376 69.9275 52.7499 69.9275Z" fill="black"/>
<path d="M49.3127 23.8583C49.3012 23.1801 49.8116 22.6323 50.4726 22.6176C51.1466 22.6013 51.7437 23.1785 51.7404 23.8388C51.7355 24.4877 51.1809 25.042 50.5282 25.0469C49.8591 25.0518 49.3258 24.5301 49.3143 23.8583H49.3127Z" fill="black"/>
<path d="M71.6938 75.7478C73.3526 74.093 74.964 72.4822 76.5787 70.8731C76.7505 70.7019 76.9222 70.5209 77.1218 70.384C77.5897 70.0611 78.2359 70.128 78.64 70.5144C79.0326 70.891 79.1308 71.4861 78.8461 71.967C78.7234 72.1741 78.5516 72.3551 78.3799 72.5263C76.5084 74.3979 74.6336 76.2647 72.7572 78.1314C71.8901 78.9939 71.2799 78.9662 70.4554 78.0401C69.6832 77.1744 68.9062 76.3136 68.1438 75.4381C67.7626 74.9995 67.6678 74.4892 67.9573 73.9691C68.2371 73.4702 68.7098 73.2567 69.2546 73.4034C69.5474 73.4816 69.8321 73.6985 70.0497 73.9218C70.601 74.4892 71.113 75.0957 71.6938 75.7462V75.7478Z" fill="black"/>
</svg>
