<svg width="108" height="108" viewBox="0 0 108 108" fill="none" xmlns="http://www.w3.org/2000/svg">
<circle cx="53.8198" cy="53.8541" r="53.3716" fill="#E0FEA4"/>
<path d="M72.1611 31.845C76.5862 32.4921 78.6781 36 78.6573 39.0537C78.6365 42.0963 76.5351 45.5245 72.1611 46.1636C72.1611 46.4011 72.1611 46.6513 72.1611 46.9031C72.1611 57.3823 72.1611 67.8599 72.1611 78.339C72.1611 80.5369 71.0561 82.2024 69.1562 82.7873C68.614 82.9546 68.0191 83.0104 67.4482 83.012C56.1959 83.0248 44.9437 83.0248 33.6898 83.0184C30.792 83.0168 28.9864 81.2126 28.9848 78.3247C28.9816 62.0202 28.9816 45.7157 28.9848 29.4129C28.9848 26.4931 30.7888 24.7032 33.7314 24.7016C44.9644 24.6969 56.1959 24.7192 67.429 24.6857C70.1605 24.6777 71.8061 26.4357 72.0828 28.294C72.2219 29.2296 72.1436 30.1986 72.1611 31.1517C72.1659 31.386 72.1611 31.6203 72.1611 31.845ZM70.7986 31.8593C70.7986 31.0369 70.7986 30.2448 70.7986 29.4527C70.7954 27.2692 69.588 26.0691 67.3842 26.0691C56.1911 26.0691 44.998 26.0691 33.8065 26.0691C31.5516 26.0691 30.3634 27.2469 30.3634 29.4766C30.3634 45.7413 30.3634 62.0059 30.3634 78.2705C30.3634 80.462 31.5628 81.6541 33.7714 81.6541C44.9836 81.6541 56.1975 81.6541 67.4098 81.6541C69.5976 81.6541 70.8002 80.4444 70.8002 78.245C70.8002 67.7658 70.8002 57.2883 70.8002 46.8091V46.1779C66.3847 45.5054 64.2721 42.0484 64.2945 38.9629C64.3169 35.7833 66.543 32.4825 70.8002 31.8593H70.7986ZM70.4116 39.8187C70.0773 39.4362 69.8231 39.1015 69.5256 38.8146C69.2249 38.523 68.8699 38.523 68.5724 38.8306C68.2782 39.1366 68.2958 39.4856 68.5804 39.7869C69.0314 40.2618 69.4984 40.7224 69.9702 41.1766C70.2708 41.4667 70.6307 41.505 70.9313 41.2117C72.0972 40.0753 73.2518 38.9262 74.3905 37.7627C74.6768 37.4711 74.6911 37.0423 74.3457 36.8256C74.1234 36.6869 73.738 36.7571 73.4389 36.8128C73.2918 36.8399 73.1767 37.0423 73.0503 37.1683C72.2091 38.0098 71.3695 38.8529 70.4084 39.8171L70.4116 39.8187Z" fill="black"/>
<path d="M50.5428 52.2121C48.5694 52.2121 46.5975 52.2152 44.624 52.2121C43.8468 52.2121 43.6325 51.9905 43.6677 51.208C43.7572 49.1552 44.3362 47.2649 45.6108 45.6217C48.2447 42.2254 52.5867 42.1266 55.3597 45.4114C56.8342 47.1566 57.4212 49.2317 57.4979 51.4709C57.5171 52.0224 57.1637 52.22 56.6391 52.2184C54.6065 52.2105 52.5739 52.2152 50.5412 52.2152L50.5428 52.2121Z" fill="black"/>
<path d="M50.5747 42.2093C48.3805 42.2141 46.6214 40.4673 46.6182 38.279C46.615 36.0956 48.3741 34.3137 50.5443 34.3025C52.7433 34.2914 54.5456 36.0828 54.5424 38.279C54.5376 40.4546 52.7721 42.2046 50.5747 42.2109V42.2093Z" fill="black"/>
<path d="M50.5473 57.9082C46.458 57.9082 42.3671 57.9082 38.2779 57.9082C38.0796 57.9082 37.8237 57.9704 37.6926 57.8732C37.4639 57.7026 37.1856 57.4428 37.1648 57.199C37.1472 56.9998 37.4415 56.7272 37.6574 56.571C37.7933 56.4722 38.0428 56.5168 38.2411 56.5168C46.4612 56.5152 54.6813 56.5152 62.8998 56.5168C63.0981 56.5168 63.346 56.4706 63.4835 56.5678C63.6994 56.7224 63.9921 56.9918 63.9761 57.1926C63.9585 57.4349 63.6866 57.6994 63.4612 57.8716C63.3316 57.9704 63.0757 57.9082 62.8758 57.9082C58.7658 57.9082 54.6557 57.9082 50.5457 57.9082H50.5473Z" fill="black"/>
<path d="M50.5277 64.2245C46.4576 64.2245 42.3876 64.2245 38.3175 64.2245C38.1576 64.2245 37.9977 64.2324 37.8393 64.2197C37.4267 64.1894 37.1485 63.979 37.1325 63.5567C37.1165 63.0993 37.4075 62.8793 37.8409 62.8347C37.9785 62.8203 38.1192 62.8283 38.2599 62.8283C46.4592 62.8283 54.6602 62.8283 62.8595 62.8283C63.0194 62.8283 63.1809 62.8172 63.3376 62.8379C63.739 62.8905 64.0141 63.0897 64.0109 63.5296C64.0077 63.9647 63.7406 64.1703 63.3344 64.2165C63.1569 64.2372 62.9762 64.2229 62.7955 64.2229C58.7062 64.2229 54.6154 64.2229 50.5261 64.2229L50.5277 64.2245Z" fill="black"/>
<path d="M50.6491 69.1524C52.5842 69.1524 54.5193 69.1524 56.4543 69.1524C56.6143 69.1524 56.819 69.095 56.9229 69.1715C57.1692 69.3532 57.4939 69.5683 57.5562 69.8265C57.6538 70.2266 57.3339 70.4736 56.9277 70.5358C56.7918 70.5565 56.6495 70.5469 56.5103 70.5469C52.5602 70.5469 48.6117 70.5469 44.6615 70.5469C44.5416 70.5469 44.4217 70.5517 44.3033 70.5422C43.8667 70.5103 43.5629 70.2919 43.5645 69.8457C43.5645 69.3994 43.8667 69.1715 44.3065 69.1572C44.6855 69.1444 45.0645 69.1524 45.4436 69.1524C47.1787 69.1524 48.9139 69.1524 50.6491 69.1524Z" fill="black"/>
<path d="M50.5559 75.2758C51.872 75.2614 52.9627 76.3261 52.9803 77.6409C52.9979 78.9494 51.936 80.046 50.6214 80.0794C49.3148 80.1129 48.2002 79.0435 48.1762 77.735C48.1522 76.3739 49.2013 75.2885 50.5559 75.2742V75.2758Z" fill="black"/>
<path d="M48.3176 29.4081C46.6256 29.4081 44.932 29.4081 43.24 29.4081C43.0609 29.4081 42.8258 29.4655 42.7154 29.3762C42.4947 29.1961 42.2181 28.9411 42.1989 28.6989C42.1829 28.5012 42.4755 28.2239 42.6946 28.0821C42.8546 27.9785 43.1184 28.0263 43.3375 28.0263C46.6432 28.0231 49.9488 28.0247 53.2544 28.0263C53.4335 28.0263 53.6143 28.0215 53.7918 28.0406C54.2044 28.0868 54.4619 28.3084 54.4475 28.7387C54.4331 29.1642 54.1724 29.3826 53.755 29.4033C53.4367 29.4192 53.1185 29.4097 52.7986 29.4097C51.305 29.4097 49.8113 29.4097 48.3176 29.4097V29.4081Z" fill="black"/>
<path d="M57.7787 29.4064C57.6587 29.4064 57.5388 29.4064 57.4205 29.4064C56.9487 29.4033 56.6384 29.1865 56.6416 28.702C56.6448 28.243 56.9631 28.0453 57.3965 28.0294C57.6747 28.0198 57.9546 28.0167 58.2345 28.0294C58.6615 28.0517 58.9813 28.2302 58.9797 28.7052C58.9781 29.2024 58.6631 29.3985 58.1977 29.4033C58.0586 29.4048 57.9178 29.4033 57.7787 29.4033V29.4064Z" fill="black"/>
</svg>
