<svg width="108" height="108" viewBox="0 0 108 108" fill="none" xmlns="http://www.w3.org/2000/svg">
<circle cx="54.1802" cy="53.8541" r="53.3716" fill="#E0FEA4"/>
<path d="M75.7015 53.8252C75.7015 45.9064 75.7031 37.9877 75.7015 30.0689C75.7015 28.2812 74.7605 27.0544 73.1606 26.7434C72.8926 26.6915 72.6136 26.6884 72.3393 26.6884C63.919 26.6852 55.4987 26.6852 47.08 26.6884C44.9835 26.6884 43.6958 27.9702 43.6926 30.0579C43.6879 32.7818 43.6926 35.5073 43.6926 38.2312C43.6926 38.4071 43.7037 38.5862 43.6816 38.7605C43.6185 39.2365 43.338 39.5083 42.8556 39.5067C42.3717 39.5067 42.0959 39.224 42.0313 38.7543C42.0045 38.561 42.0202 38.3631 42.0202 38.1668C42.0202 35.4429 42.0155 32.7174 42.0202 29.9935C42.0265 27.0607 44.0362 25.028 46.9791 25.0233C55.4577 25.0123 63.9363 25.0107 72.4166 25.0233C75.4083 25.028 77.3928 27.0622 77.3975 30.1003C77.4054 36.2754 77.3991 42.449 77.3991 48.6241C77.3991 58.2677 77.3991 67.9113 77.3991 77.5548C77.3991 79.9991 76.1696 81.8198 74.0433 82.4591C73.5073 82.6209 72.9226 82.6822 72.3598 82.6822C63.9206 82.6963 55.4814 82.6963 47.0406 82.6885C44.0268 82.6853 42.0281 80.6667 42.0234 77.657C42.0202 75.0493 42.0234 72.4432 42.0234 69.8356C42.0234 69.7178 42.0187 69.5999 42.0265 69.4821C42.0659 68.9496 42.4001 68.6166 42.8903 68.6448C43.4057 68.6747 43.6847 68.97 43.691 69.479C43.7036 70.7137 43.6973 71.9484 43.6973 73.1831C43.6973 74.6927 43.691 76.2023 43.6989 77.7104C43.7084 79.7242 45.0072 81.0202 47.0264 81.0202C55.4262 81.0233 63.8276 81.0218 72.2274 81.0202C74.4688 81.0202 75.7046 79.8012 75.7062 77.5784C75.7094 69.6596 75.7062 61.7409 75.7062 53.8221L75.7015 53.8252Z" fill="black"/>
<path d="M54.7572 53.8551C54.7572 56.6183 54.7603 59.3814 54.7572 62.1446C54.754 64.3485 53.4032 65.7089 51.1933 65.712C45.6275 65.7183 40.0618 65.7199 34.4961 65.712C32.3272 65.7089 30.9653 64.3422 30.9637 62.1744C30.9574 56.6293 30.9574 51.0841 30.9637 45.5389C30.9669 43.3695 32.3256 42.006 34.4976 42.0044C40.0823 41.9966 45.6685 41.995 51.2532 42.0044C53.389 42.0076 54.7509 43.3836 54.7556 45.5106C54.7619 48.2926 54.7556 51.0762 54.7556 53.8582L54.7572 53.8551ZM32.6613 53.8567C32.6613 56.5994 32.6598 59.3437 32.6613 62.0865C32.6629 63.4736 33.202 64.0186 34.5828 64.0202C40.0902 64.0234 45.596 64.0234 51.1034 64.0202C52.5126 64.0202 53.0674 63.4657 53.0674 62.0566C53.0706 56.59 53.0706 51.1218 53.0674 45.6551C53.0674 44.2476 52.511 43.6915 51.1034 43.69C45.596 43.6868 40.0902 43.6868 34.5828 43.69C33.202 43.69 32.6629 44.2398 32.6613 45.6253C32.6582 48.368 32.6613 51.1123 32.6613 53.8551V53.8567Z" fill="black"/>
<path d="M59.7242 75.6353C60.9206 75.6353 62.1201 75.6054 63.3149 75.6557C63.6175 75.6682 63.9895 75.8772 64.1787 76.1144C64.3111 76.2809 64.2858 76.7223 64.1487 76.9092C63.9927 77.1229 63.638 77.302 63.3669 77.3067C60.9348 77.3365 58.501 77.3302 56.0673 77.3192C55.4604 77.3161 55.1263 77.0051 55.1137 76.5071C55.0995 75.9887 55.4573 75.6447 56.0752 75.6384C57.292 75.6243 58.5089 75.6337 59.7258 75.6337L59.7242 75.6353Z" fill="black"/>
<path d="M42.0176 56.4785C42.0176 54.1536 42.0176 51.8271 42.0176 49.5022C42.0176 49.3059 42.0003 49.1079 42.0287 48.9163C42.0964 48.445 42.3786 48.1717 42.8609 48.1748C43.3416 48.1795 43.6412 48.445 43.6774 48.9257C43.7105 49.3546 43.69 49.7865 43.6916 50.217C43.6916 52.2497 43.6916 54.284 43.6916 56.4156C43.8697 56.279 43.9911 56.202 44.092 56.1046C44.5128 55.6946 44.9148 55.261 45.3514 54.8683C45.6997 54.5542 46.1127 54.529 46.4753 54.84C46.8378 55.1511 46.9166 55.6019 46.5966 55.9397C45.5989 56.9906 44.5711 58.0164 43.5103 59.006C43.0784 59.4097 42.4369 59.383 41.9971 58.9683C40.9694 58.0022 39.9701 57.0031 38.9865 55.9899C38.6382 55.6318 38.6602 55.1872 39.029 54.8369C39.3995 54.4866 39.8329 54.5023 40.1892 54.8526C40.7598 55.4134 41.2926 56.0119 41.8411 56.5947C41.8994 56.5554 41.9593 56.5162 42.0176 56.4769V56.4785Z" fill="black"/>
</svg>
